<?xml version="1.0" encoding="UTF-8"?>
<svg width="26px" height="26px" viewBox="0 0 26 26" version="1.1" xmlns="http://www.w3.org/2000/svg" xmlns:xlink="http://www.w3.org/1999/xlink">
    <!-- Generator: Sketch 63 (92445) - https://sketch.com -->
    <title>toolbar-eraser1</title>
    <desc>Created with Sketch.</desc>
    <g id="toolbar-eraser1" stroke="none" stroke-width="1" fill="none" fill-rule="evenodd">
        <g id="toolbar-eraser">
            <g id="eraser">
                <rect id="矩形" x="0" y="0" width="26" height="26"></rect>
                <path d="M16.5650964,3.81647831 L21.527604,7.29126353 C23.3185302,8.54528355 23.7708066,11.0049085 22.5431244,12.8139909 L15.5030547,23.1880646 L8.05121329,23.1880646 L4.69212186,20.9856047 C2.8446856,19.7742937 2.32900419,17.2946891 3.54031521,15.4472528 L3.60878629,15.3462197 L10.9941825,4.79878075 C12.2612926,2.98916002 14.7554757,2.54936824 16.5650964,3.81647831 Z M9.09394103,9.95274353 L4.76771647,16.1316373 L4.71109295,16.2148982 C3.95654713,17.365697 4.23294982,18.8938762 5.31419021,19.7122036 L5.45976727,19.8148269 L8.469,21.788 L14.76,21.788 L18.379941,16.4537435 L9.09394103,9.95274353 Z M12.2480124,5.45940936 L12.1409954,5.60178776 L9.89694103,8.80574353 L19.165941,15.2957435 L21.3846852,12.0278492 C22.149429,10.9009416 21.9113016,9.38568497 20.8655618,8.54395972 L20.724597,8.4380764 L15.7620894,4.96329118 C14.6348465,4.17398719 13.098946,4.40363842 12.2480124,5.45940936 Z" id="形状结合" fill="#01BDE8" fill-rule="nonzero"></path>
            </g>
        </g>
    </g>
</svg>