<?xml version="1.0" encoding="UTF-8"?>
<svg width="26px" height="26px" viewBox="0 0 26 26" version="1.1" xmlns="http://www.w3.org/2000/svg" xmlns:xlink="http://www.w3.org/1999/xlink">
    <!-- Generator: Sketch 63 (92445) - https://sketch.com -->
    <title>shape/toolbar-heart1</title>
    <desc>Created with Sketch.</desc>
    <g id="shape/toolbar-heart1" stroke="none" stroke-width="1" fill="none" fill-rule="evenodd">
        <g id="shape/toolbar-heart备份">
            <rect id="矩形备份-6" x="0" y="0" width="26" height="26"></rect>
            <path d="M5.81144715,15.4035668 L12.5726833,21 L19.3338395,15.4035668 L19.8207883,14.8460818 C21.5835645,12.8257058 21.5835645,9.53815205 19.8206818,7.51792861 C18.9663848,6.53902727 17.8306592,6 16.6225397,6 C15.4146331,6 14.2788809,6.53902727 13.424797,7.51792861 L12.9242427,8.09161374 C12.730065,8.31399147 12.4154347,8.31399147 12.2212569,8.09173577 L11.7204897,7.51792861 C10.8661928,6.53902727 9.73044057,6 8.52242751,6 C7.31441445,6 6.17879537,6.53890523 5.32481792,7.51780658 C4.47052097,8.49658589 4,9.79784189 4,11.1819289 C4,12.566138 4.47052097,13.8674246 5.32471142,14.8462039 L5.81144715,15.4035668 Z" id="Fill-2" fill="#01BDE8"></path>
        </g>
    </g>
</svg>