<?xml version="1.0" encoding="UTF-8"?>
<svg width="26px" height="26px" viewBox="0 0 26 26" version="1.1" xmlns="http://www.w3.org/2000/svg" xmlns:xlink="http://www.w3.org/1999/xlink">
    <!-- Generator: Sketch 63 (92445) - https://sketch.com -->
    <title>toolbar-note1</title>
    <desc>Created with Sketch.</desc>
    <g id="toolbar-note1" stroke="none" stroke-width="1" fill="none" fill-rule="evenodd">
        <g id="toolbar-note">
            <g id="操作栏/note备份">
                <rect id="Rectangle-16" x="0" y="0" width="26" height="26"></rect>
                <g id="编组-2" transform="translate(12.516848, 13.532364) rotate(35.000000) translate(-12.516848, -13.532364) translate(6.516848, 1.532364)" fill="#01BDE8" fill-rule="nonzero">
                    <path d="M8.24363011,1.07793287 C9.22239466,1.07793287 10.0176086,2.02268225 10.0239367,3.19301586 L10.0432201,6.45793242 C10.064127,6.52434861 10.0753997,6.59503628 10.0753997,6.66835684 C10.0753997,6.74037656 10.0645234,6.80985598 10.0443238,6.87524219 L10.1015834,17.5532164 L6.84840906,22.6585603 C6.55045139,23.1261579 5.99190075,23.2163962 5.60085128,22.8601132 C5.53736256,22.802269 5.48066848,22.734477 5.43229365,22.6585603 L2.17911928,17.5532164 L2.10154589,3.22054346 C2.09555327,2.09827955 2.81683814,1.17323151 3.73758266,1.08484359 L3.88192805,1.07793287 L8.24363011,1.07793287 Z M8.64550882,7.36793287 L3.52350882,7.36793287 L3.577,17.142 L6.14,21.164 L8.699,17.147 L8.64550882,7.36793287 Z M3.94887822,2.47633112 L3.87136226,2.47843716 C3.73374451,2.49164793 3.54240713,2.72353696 3.50722055,3.08704518 L3.50156294,3.21296995 L3.51650882,5.96793287 L8.63850882,5.96793287 L8.6239572,3.20058566 C8.6217693,2.79594988 8.43538189,2.53430974 8.29019179,2.48602807 L8.24363011,2.47793287 L3.94887822,2.47633112 Z" id="形状结合" transform="translate(6.101546, 12.077933) rotate(10.000000) translate(-6.101546, -12.077933) "></path>
                </g>
            </g>
        </g>
    </g>
</svg>