<?xml version="1.0" encoding="UTF-8"?>
<svg width="26px" height="26px" viewBox="0 0 26 26" version="1.1" xmlns="http://www.w3.org/2000/svg" xmlns:xlink="http://www.w3.org/1999/xlink">
    <!-- Generator: Sketch 63 (92445) - https://sketch.com -->
    <title>shape/toolbar-why1</title>
    <desc>Created with Sketch.</desc>
    <g id="shape/toolbar-why1" stroke="none" stroke-width="1" fill="none" fill-rule="evenodd">
        <g id="shape/toolbar-why">
            <g id="编组">
                <path d="M13.0527056,17.6315789 C12.5473314,17.6315789 12.2104893,17.7999926 11.8736842,18.1368199 C11.5368421,18.4737582 11.3684211,18.8105855 11.3684211,19.3157895 C11.3684211,19.8210304 11.5368421,20.1579687 11.8736842,20.4947961 C12.2104893,20.8315863 12.5473314,21 13.0527056,21 C13.5579317,21 13.8947738,20.8315863 14.231616,20.4947961 C14.5684211,20.1579687 14.7368421,19.8210304 14.7368421,19.3157895 C14.7368421,18.8105855 14.5684211,18.4737582 14.231616,18.1368199 C13.8947738,17.7999926 13.5579317,17.6315789 13.0527056,17.6315789 Z M13.3684492,5 C11.7894997,5 10.5262984,5.47804104 9.57898423,6.43387809 C8.47363976,7.38985516 8,8.66428121 8,10.2574713 L10.368407,10.2574713 C10.368407,9.30163426 10.5262984,8.5049692 11.000077,8.02706818 C11.4737167,7.38985516 12.105248,7.07109111 13.2105925,7.07109111 C14.0000152,7.07109111 14.6316852,7.23054315 15.105325,7.70844417 C15.5789647,8.18638019 15.7368562,8.82359322 15.7368562,9.46094627 C15.7368562,10.0981593 15.5789647,10.5760603 15.105325,11.0541014 L14.6316852,11.5320374 C13.3684492,12.8064634 12.4210309,13.7624405 12.105248,14.3996535 C11.7894997,14.8776946 11.7894997,15.6742196 11.7894997,16.4707446 L11.7894997,16.7894737 L14.157872,16.7894737 L14.157872,16.4707446 C14.157872,15.9928086 14.3159022,15.5149076 14.4736549,15.0370066 C14.6316852,14.5589305 14.9474335,14.2403415 15.4210732,13.9217175 C16.5264177,12.9659155 17.1579489,12.4878394 17.3158404,12.1692504 C17.9473717,11.5320374 18.1052632,10.5760603 18.1052632,9.46094627 C18.1052632,8.18638019 17.6315887,7.07109111 16.842166,6.27456608 C15.8947477,5.31876404 14.789542,5 13.3684492,5 Z" id="Fill-3" fill="#01BDE8"></path>
            </g>
        </g>
    </g>
</svg>